normalP12_grf.mot
version=1
nRows=25
nColumns=19
inDegrees=yes
endheader
time	1_ground_force_vx	1_ground_force_vy	1_ground_force_vz	1_ground_force_px	1_ground_force_py	1_ground_force_pz	1_ground_torque_x	1_ground_torque_y	1_ground_torque_z	2_ground_force_vx	2_ground_force_vy	2_ground_force_vz	2_ground_force_px	2_ground_force_py	2_ground_force_pz	2_ground_torque_x	2_ground_torque_y	2_ground_torque_z
            1.360000	         -125.785088	          879.060028	          -26.880663	            0.285834	            0.002756	           -0.221210	            0.463689	           -3.240533	            0.099092	            0.017420	            0.495144	           -0.012258	            0.849276	            0.001279	           -0.309553	           -0.020034	            0.000702	            0.060191
            1.361000	         -125.578792	          879.054437	          -26.766111	            0.286400	            0.002754	           -0.221284	            0.465974	           -3.261829	            0.099319	           -0.005077	            0.655188	           -0.034782	            0.849276	            0.001279	           -0.309553	           -0.087443	            0.000211	           -0.064182
            1.362000	         -125.468731	          879.767695	          -26.526736	            0.286908	            0.002752	           -0.221180	            0.461549	           -3.236310	            0.097581	            0.013487	           -0.623462	           -0.055034	            0.849276	            0.001279	           -0.309553	            0.013111	           -0.007001	            0.060462
            1.363000	         -125.139494	          879.842548	          -26.396610	            0.287358	            0.002750	           -0.221129	            0.459354	           -3.229672	            0.096895	            0.015447	           -0.063759	           -0.014548	            0.849276	            0.001279	           -0.309553	           -0.003653	           -0.002080	           -0.043474
            1.364000	         -124.782351	          879.200026	          -26.245645	            0.287633	            0.002748	           -0.221069	            0.460758	           -3.246438	            0.096912	           -0.031701	           -0.383340	           -0.061526	            0.849276	            0.001279	           -0.309553	           -0.003707	            0.011277	           -0.001691
            1.365000	         -124.446856	          878.876088	          -26.093619	            0.287960	            0.002747	           -0.221024	            0.458825	           -3.240341	            0.096205	            0.015488	           -0.064493	           -0.014331	            0.849276	            0.001279	           -0.309553	           -0.070691	            0.001106	           -0.001881
            1.366000	         -123.962081	          879.507377	          -25.962006	            0.288582	            0.002744	           -0.220969	            0.459167	           -3.257778	            0.096166	           -0.021686	            0.256579	            0.025321	            0.849276	            0.001279	           -0.309553	            0.097305	           -0.003040	           -0.002285
            1.367000	         -123.536094	          878.864801	          -25.803396	            0.288952	            0.002742	           -0.220761	            0.456663	           -3.248804	            0.095385	            0.008429	            0.095364	            0.017078	            0.849276	            0.001279	           -0.309553	           -0.036972	            0.000033	            0.039515
            1.368000	         -122.965711	          877.980508	          -25.745097	            0.289484	            0.002740	           -0.220824	            0.459864	           -3.283448	            0.096281	           -0.001140	           -0.463243	            0.015073	            0.849276	            0.001279	           -0.309553	            0.012937	           -0.003807	           -0.064127
            1.369000	         -122.391607	          878.055473	          -25.722479	            0.289886	            0.002738	           -0.220693	            0.460530	           -3.303913	            0.096788	           -0.013698	            0.334939	            0.018214	            0.849276	            0.001279	           -0.309553	           -0.154627	            0.002480	           -0.105765
            1.370000	         -121.749264	          878.049791	          -25.746014	            0.290311	            0.002736	           -0.220584	            0.456566	           -3.292731	            0.096549	           -0.030166	            0.016307	            0.009229	            0.849276	            0.001279	           -0.309553	           -0.054016	           -0.001271	           -0.147518
            1.371000	         -121.095264	          877.165354	          -25.772258	            0.290797	            0.002734	           -0.220534	            0.458769	           -3.323140	            0.097638	           -0.030737	           -0.143490	           -0.014455	            0.849276	            0.001279	           -0.309553	            0.013133	           -0.007206	           -0.022744
            1.372000	         -120.400451	          876.921610	          -25.842526	            0.291103	            0.002732	           -0.220322	            0.453694	           -3.304426	            0.097380	            0.038274	           -0.144330	            0.000829	            0.849276	            0.001279	           -0.309553	           -0.053992	           -0.002140	           -0.022638
            1.373000	         -119.647182	          876.037160	          -26.014279	            0.291637	            0.002730	           -0.220349	            0.455213	           -3.332992	            0.098975	           -0.007471	           -0.065091	            0.016503	            0.849276	            0.001279	           -0.309553	           -0.070403	            0.003064	            0.122607
            1.374000	         -118.982512	          875.872596	          -26.222082	            0.292060	            0.002728	           -0.220231	            0.454555	           -3.346142	            0.100178	            0.016080	            0.094608	           -0.006081	            0.849276	            0.001279	           -0.309553	           -0.137683	           -0.010469	            0.039537
            1.375000	         -118.213165	          875.150208	          -26.561698	            0.292456	            0.002725	           -0.219963	            0.450213	           -3.332998	            0.101160	            0.028928	           -0.622767	           -0.008704	            0.849276	            0.001279	           -0.309553	            0.080077	           -0.003774	           -0.022601
            1.376000	         -117.428465	          874.426086	          -26.916546	            0.292994	            0.002723	           -0.219885	            0.447800	           -3.334524	            0.102643	           -0.014883	            0.015887	           -0.021600	            0.849276	            0.001279	           -0.309553	           -0.020193	           -0.002811	            0.018619
            1.377000	         -116.672391	          874.182197	          -27.285393	            0.293346	            0.002721	           -0.219783	            0.446707	           -3.347006	            0.104468	           -0.008028	           -0.224160	           -0.022499	            0.849276	            0.001279	           -0.309553	           -0.037034	           -0.007662	            0.039443
            1.378000	         -115.917196	          873.779312	          -27.815449	            0.293793	            0.002718	           -0.219526	            0.441878	           -3.330860	            0.106033	           -0.015974	           -0.303562	           -0.022509	            0.849276	            0.001279	           -0.309553	            0.013361	            0.013841	            0.018664
            1.379000	         -115.157376	          872.656556	          -28.332297	            0.294305	            0.002716	           -0.219565	            0.442357	           -3.352161	            0.108834	            0.047370	            0.255310	            0.010124	            0.849276	            0.001279	           -0.309553	           -0.036903	           -0.003545	           -0.002253
            1.380000	         -114.349606	          872.014375	          -28.909069	            0.294726	            0.002714	           -0.219353	            0.440128	           -3.356358	            0.111270	            0.001348	            0.256068	           -0.028117	            0.849276	            0.001279	           -0.309553	           -0.003543	           -0.003203	           -0.043577
            1.381000	         -113.534838	          871.289812	          -29.524398	            0.295267	            0.002712	           -0.219350	            0.439317	           -3.371413	            0.114243	            0.016149	            0.095611	           -0.005585	            0.849276	            0.001279	           -0.309553	           -0.036967	            0.005995	           -0.002098
            1.382000	         -112.812368	          870.409245	          -30.170699	            0.295664	            0.002709	           -0.219112	            0.436039	           -3.364276	            0.116615	            0.038881	            0.015371	           -0.005912	            0.849276	            0.001279	           -0.309553	           -0.053779	            0.004362	            0.018760
            1.383000	         -112.059366	          869.526412	          -30.763490	            0.296253	            0.002707	           -0.218986	            0.435447	           -3.378856	            0.119543	            0.016499	            0.175842	            0.025575	            0.849276	            0.001279	           -0.309553	           -0.020417	            0.004531	           -0.064178
            1.384000	         -111.296879	          869.043954	          -31.385697	            0.296631	            0.002704	           -0.218741	            0.432790	           -3.379372	            0.122047	            0.036997	           -0.543151	           -0.015587	            0.849276	            0.001279	           -0.309553	            0.029734	           -0.005809	           -0.043385
